<?xml version="1.0" encoding="UTF-8"?> <svg xmlns="http://www.w3.org/2000/svg" width="21" height="14" viewBox="0 0 21 14" fill="none"> <path d="M8.28427 6.31188C8.28427 6.31188 10.2266 6.16769 10.2266 3.88943C10.2266 1.61138 8.63737 0.5 6.62416 0.5H2.91869H2.80985H0V13.2302H2.80985H2.91869H6.62416C6.62416 13.2302 10.6679 13.3581 10.6679 9.47291C10.6682 9.47291 10.8445 6.31188 8.28427 6.31188ZM2.91869 2.76283H6.14742H6.62437C6.62437 2.76283 7.52492 2.76283 7.52492 4.08719C7.52492 5.41155 6.99505 5.60353 6.39468 5.60353H2.91869V2.76283ZM6.45339 10.968H2.91869V7.56575H6.62416C6.62416 7.56575 7.9663 7.54861 7.9663 9.31414C7.9663 10.7863 6.98476 10.9533 6.45339 10.968Z" fill="#F5F5F4"></path> <path d="M18.5757 1.24976H13.3232V2.81752H18.5757V1.24976Z" fill="#F5F5F4"></path> <path d="M16.0616 3.73901C11.1661 3.73901 11.1704 8.62978 11.1704 8.62978C11.1704 8.62978 10.8348 13.4963 16.0618 13.4963C16.0618 13.4963 20.418 13.7453 20.418 10.1108H18.1776C18.1776 10.1108 18.2524 11.4801 16.1365 11.4801C16.1365 11.4801 13.8964 11.6299 13.8964 9.26464H20.4925C20.4925 9.26464 21.2142 3.73901 16.0616 3.73901ZM18.0529 7.56554H13.8711C13.8711 7.56554 14.1448 5.60332 16.1113 5.60332C18.078 5.6031 18.0529 7.56554 18.0529 7.56554Z" fill="#F5F5F4"></path> </svg> 