<svg width="32" height="32" viewBox="0 0 32 32" fill="none" xmlns="http://www.w3.org/2000/svg">
<style type="text/css">
	.st0{fill:url(#short-path_00000024689994477785153670000017132327901097185725_);}
	.st1{fill:url(#long-bottom-path_00000042722407978889310980000006442980276883439493_);}
	.st2{fill:url(#zigzag_00000101061692156531288000000001365869817396133269_);}
</style>
<g>
	
		<linearGradient id="short-path_00000057849611553657223820000015719019449984992651_" gradientUnits="userSpaceOnUse" x1="21.7923" y1="-636.786" x2="18.0241" y2="-643.3125" gradientTransform="matrix(1 0 0 -1 0 -628)">
		<stop  offset="0" style="stop-color:#8DEC86"/>
		<stop  offset="1" style="stop-color:#73C062"/>
	</linearGradient>
	
		<path id="short-path_00000142861329307738919680000004856176770373582015_" style="fill:url(#short-path_00000057849611553657223820000015719019449984992651_);" d="
		M16.8,14.4c-0.1,0.1,0,0.2,0.1,0.2h2.9c0.3,0,0.3,0,0.4-0.1l2.5-4.4c0.1-0.1,0-0.4-0.1-0.4l-2.1-1.7c-0.1,0-0.1,0.1-0.2,0.1
		L16.8,14.4z"/>
	
		<linearGradient id="long-bottom-path_00000050640445635012448930000005652150708387631757_" gradientUnits="userSpaceOnUse" x1="9.5213" y1="-648.4783" x2="25.157" y2="-648.4783" gradientTransform="matrix(1 0 0 -1 0 -628)">
		<stop  offset="0" style="stop-color:#8DEC86"/>
		<stop  offset="1" style="stop-color:#A5DE97"/>
	</linearGradient>
	
		<path id="long-bottom-path_00000091713806787083612540000006427186005088135346_" style="fill:url(#long-bottom-path_00000050640445635012448930000005652150708387631757_);" d="
		M23,14.7c0.1-0.1,0.1-0.1,0.2-0.1s0.1,0.1,0.2,0.1l1.6,1c0.1,0.1,0.2,0.2,0,0.3c0,0-2.6,2.2-5.4,4.5c-3.2,2.7-7.3,5.9-7.5,5.9
		c-0.1,0-2.3-0.1-2.4-0.1c-0.1,0-0.3-0.1-0.2-0.2L23,14.7z"/>
	
		<linearGradient id="zigzag_00000063634758313943302390000016735655548724529536_" gradientUnits="userSpaceOnUse" x1="10.0052" y1="-636.3838" x2="17.578" y2="-649.5002" gradientTransform="matrix(1 0 0 -1 0 -628)">
		<stop  offset="0" style="stop-color:#B5ECB1"/>
		<stop  offset="0.2346" style="stop-color:#8DEC86"/>
		<stop  offset="1" style="stop-color:#73C062"/>
	</linearGradient>
	
		<path id="zigzag_00000045584328377743520950000000623145419873441173_" style="fill:url(#zigzag_00000063634758313943302390000016735655548724529536_);" d="
		M10.3,8.5l-2.4,9.6c-0.1,0.1,0.1,0.3,0.2,0.3h5c0.1,0,0.2,0.1,0.1,0.3l-3.2,6.2c0,0-0.6,1-0.6,1.2c0,0,0,0,0,0.1
		c0.1,0,0.2-0.1,0.2-0.1l13.4-11.2c0.1-0.1,0.1-0.1,0.1-0.1c0,0-0.1-0.1-0.2-0.1h-5.9c-0.1,0-0.2-0.1-0.1-0.2l3.5-6.1
		c0-0.1,0.1-0.1,0-0.2C20.5,8,20.4,8,20.3,8c0,0-9.2,0-9.5,0C10.5,8,10.3,8.5,10.3,8.5z"/>
</g>
</svg>
