<svg width="32" height="28" viewBox="0 0 32 28" fill="none" xmlns="http://www.w3.org/2000/svg">
<path d="M9.6119 0.403049L7.76282 1.48486L15.2747 14.3245L17.1238 13.2427L9.6119 0.403049Z" fill="url(#paint0_linear_132_1363)"/>
<path d="M15.276 13.24L7.76318 26.0095L9.60962 27.0959L17.1225 14.3263L15.276 13.24Z" fill="url(#paint1_linear_132_1363)"/>
<path d="M30.8631 12.6739L16.1979 12.7097L16.2031 14.852L30.8684 14.8162L30.8631 12.6739Z" fill="url(#paint2_linear_132_1363)"/>
<path d="M22.9769 0.943359H9.18096C8.87461 0.943359 8.59183 1.1066 8.43887 1.37182L1.54111 13.3194C1.38815 13.5846 1.38815 13.9111 1.54111 14.1763L8.43887 26.1239C8.59183 26.3891 8.87504 26.5523 9.18096 26.5523H22.9769C23.2833 26.5523 23.566 26.3891 23.719 26.1239L30.6168 14.1763C30.7697 13.9111 30.7697 13.5846 30.6168 13.3194L23.719 1.37182C23.566 1.1066 23.2828 0.943359 22.9769 0.943359Z" stroke="white" stroke-width="1.55388" stroke-miterlimit="10"/>
<path d="M12.537 7.53588L10.4663 15.5498C10.4243 15.7126 10.5473 15.8711 10.7152 15.8711H15.0221L12.6819 20.5156C12.4723 20.9308 12.9822 21.3353 13.3391 21.0375L22.6962 13.2245C22.8809 13.0707 22.7716 12.7699 22.5313 12.7699H17.8941L20.8149 7.72955C20.9143 7.55816 20.7904 7.34351 20.5925 7.34351H12.786C12.6686 7.34351 12.5666 7.42277 12.537 7.53631V7.53588Z" fill="white" fill-opacity="0.65"/>
<path d="M1.29407 13.7478L16.1993 13.7825" stroke="white" stroke-width="1.55388" stroke-miterlimit="10"/>
<path d="M23.4717 0.943359L16.199 13.7826" stroke="white" stroke-width="1.55388" stroke-miterlimit="10"/>
<path d="M16.199 13.7825L23.4717 26.5523" stroke="white" stroke-width="1.55388" stroke-miterlimit="10"/>
<defs>
<linearGradient id="paint0_linear_132_1363" x1="15.6406" y1="12.5221" x2="8.8924" y2="1.63193" gradientUnits="userSpaceOnUse">
<stop offset="0.49" stop-color="white" stop-opacity="0"/>
<stop offset="0.8" stop-color="white"/>
</linearGradient>
<linearGradient id="paint1_linear_132_1363" x1="15.7377" y1="14.4806" x2="8.43117" y2="27.0927" gradientUnits="userSpaceOnUse">
<stop offset="0.46" stop-color="white" stop-opacity="0"/>
<stop offset="0.83" stop-color="white"/>
</linearGradient>
<linearGradient id="paint2_linear_132_1363" x1="16.1969" y1="13.7647" x2="30.8673" y2="13.7647" gradientUnits="userSpaceOnUse">
<stop offset="0.43" stop-color="white" stop-opacity="0"/>
<stop offset="0.84" stop-color="white"/>
</linearGradient>
</defs>
</svg>
